#!OML:ASF H:\Terrain\Patient Classification 1\PLAYGROUND\JustinFriday\JustinFriday.ASF
:FULLY-SPECIFIED
:DEGREES
658
root 13.7849 21.3163 19.2812 170.83 -17.0287 -180.318
lowerback 30.8818 1.30693 3.62553
upperback 0.240658 3.04663 3.49976
thorax -16.0215 0.961029 0.664793
lowerneck 9.80707 -5.20346 -11.7695
upperneck 2.24802 -8.43241 8.34076
head -0.0609429 -4.53071 4.58441
rclavicle -6.75868e-015 -1.11319e-014
rhumerus 108.879 16.8097 -119.563
rradius 26.1108
rwrist 64.4401
rhand 12.3319 21.9988
rfingers 7.12502
rthumb 37.3345 -3.97847
lclavicle -6.75868e-015 -1.11319e-014
lhumerus 97.9364 5.76426 73.1053
lradius 44.1459
lwrist -21.121
lhand -20.9596 -1.56434
lfingers 7.12502
lthumb 5.41336 28.3465
rfemur -36.226 -16.8413 18.2448
rtibia 89.3095
rfoot -11.45 -8.24645
rtoes 5.33438
lfemur -23.1266 8.46389 -8.09105
ltibia 73.7047
lfoot -3.83956 -5.71555
ltoes -29.0135
659
root 13.7704 21.2206 19.1959 171.336 -17.1257 -180.697
lowerback 30.2479 1.39442 3.23249
upperback -0.0716919 3.05168 3.33342
thorax -16.1163 1.01696 0.693444
lowerneck 10.1469 -5.15315 -11.7494
upperneck 2.1766 -8.40737 8.44382
head -0.135299 -4.52929 4.6273
rclavicle 3.88624e-014 -1.09729e-013
rhumerus 108.77 17.0035 -120.326
rradius 25.8049
rwrist 65.8357
rhand 12.6906 21.8208
rfingers 7.12502
rthumb 37.6736 -4.06648
lclavicle 3.88624e-014 -1.09729e-013
lhumerus 97.8992 5.87743 72.637
lradius 43.7251
lwrist -20.8455
lhand -21.2034 -1.49947
lfingers 7.12502
lthumb 5.17791 28.4173
rfemur -33.7341 -16.5631 17.5188
rtibia 88.8413
rfoot -11.4719 -8.31528
rtoes 7.10658
lfemur -20.4789 7.71731 -7.9814
ltibia 72.9342
lfoot -2.93435 -4.64551
ltoes -26.9465
660
root 13.7572 21.1193 19.1069 171.94 -17.2682 -181.057
lowerback 29.4636 1.45414 2.88716
upperback -0.415594 3.03188 3.12509
thorax -16.1665 1.0599 0.663672
lowerneck 10.4071 -5.1656 -11.7098
upperneck 2.19715 -8.46177 8.52193
head -0.163411 -4.56767 4.65483
rclavicle -3.29983e-014 -6.36111e-015
rhumerus 108.732 17.1401 -121.054
rradius 25.5235
rwrist 66.9749
rhand 12.9586 21.7082
rfingers 7.12502
rthumb 37.9268 -4.1109
lclavicle -3.29983e-014 -6.36111e-015
lhumerus 97.8993 5.97975 72.0608
lradius 43.3111
lwrist -20.2466
lhand -21.2278 -1.46722
lfingers 7.12502
lthumb 5.1544 28.4501
rfemur -31.3903 -16.3734 16.8987
rtibia 88.2304
rfoot -11.1437 -8.80367
rtoes 8.80431
lfemur -18.0733 6.98204 -7.93911
ltibia 72.1872
lfoot -1.74601 -3.50561
ltoes -24.7109
661
root 13.7444 21.027 19.018 172.535 -17.3327 -180.89
lowerback 28.4863 1.45728 3.03479
upperback -0.691958 3.10218 3.10078
thorax -16.0188 1.10492 0.539041
lowerneck 10.0775 -5.12864 -11.7379
upperneck 2.38162 -8.38548 8.5545
head -0.0625926 -4.52549 4.65272
rclavicle 5.09883e-014 -1.74931e-014
rhumerus 108.737 17.543 -121.845
rradius 25.332
rwrist 68.4061
rhand 13.3437 21.5585
rfingers 7.12502
rthumb 38.2904 -4.16112
lclavicle 5.09883e-014 -1.74931e-014
lhumerus 98.103 6.17431 71.6706
lradius 42.8898
lwrist -19.9504
lhand -21.4666 -1.38445
lfingers 7.12502
lthumb 4.92381 28.5383
rfemur -29.2544 -16.1126 17.0077
rtibia 87.4185
rfoot -10.1327 -9.8235
rtoes 7.47225
lfemur -15.8184 6.49331 -7.28966
ltibia 71.3914
lfoot -0.85354 -2.2596
ltoes -26.4306
662
root 13.737 20.9449 18.926 173.187 -17.586 -180.895
lowerback 27.5031 1.46324 2.91703
upperback -0.981529 3.08664 3.07879
thorax -15.8909 1.1336 0.597496
lowerneck 10.9071 -5.4317 -12.5795
upperneck 2.92059 -9.09033 9.29102
head 0.10679 -4.94704 5.03124
rclavicle -1.93815e-015 1.43125e-014
rhumerus 108.523 18.3307 -123.478
rradius 24.9356
rwrist 70.987
rhand 13.6902 21.1537
rfingers 7.12502
rthumb 38.6174 -4.47488
lclavicle -1.93815e-015 1.43125e-014
lhumerus 98.258 6.44092 71.2008
lradius 42.2862
lwrist -20.4657
lhand -22.9007 -1.07698
lfingers 7.12502
lthumb 3.53901 28.8734
rfemur -27.1494 -15.9512 16.9319
rtibia 86.6031
rfoot -9.05079 -10.6401
rtoes -5.75942
lfemur -13.7098 6.03627 -6.84666
ltibia 70.5444
lfoot -0.0915153 -3.77381
ltoes -29.292
